<svg width="20" height="20" viewBox="0 0 20 20" fill="none" xmlns="http://www.w3.org/2000/svg">
<path opacity="0.15" fill-rule="evenodd" clip-rule="evenodd" d="M4.12132 0.585786C3.34027 -0.195262 2.07394 -0.195262 1.29289 0.585786L0.585787 1.29289C-0.195262 2.07394 -0.195262 3.34027 0.585786 4.12132L6.22542 9.76096L0.990339 14.996C0.209291 15.7771 0.20929 17.0434 0.990339 17.8245L1.69745 18.5316C2.47849 19.3126 3.74482 19.3126 4.52587 18.5316L9.76096 13.2965L14.7279 18.2635C15.509 19.0445 16.7753 19.0445 17.5563 18.2635L18.2635 17.5563C19.0445 16.7753 19.0445 15.509 18.2635 14.7279L13.2965 9.76096L18.668 4.38944C19.4491 3.60839 19.4491 2.34206 18.668 1.56101L17.9609 0.853903C17.1799 0.0728542 15.9135 0.0728538 15.1325 0.853902L9.76096 6.22542L4.12132 0.585786Z" fill="black"/>
</svg>
